<svg width="150" height="150" viewBox="0 0 150 150" fill="none" xmlns="http://www.w3.org/2000/svg">
<g clip-path="url(#clip0_72_1889)">
<path fill-rule="evenodd" clip-rule="evenodd" d="M33 63.5V100.3H44.6667C45.8923 100.3 47.106 100.538 48.2384 101C49.3706 101.463 50.3997 102.14 51.2662 102.995C52.1329 103.849 52.8205 104.863 53.2896 105.979C53.7585 107.096 54 108.292 54 109.5V121H82L117 86.5V49.7H105.333C104.108 49.7 102.894 49.4621 101.761 48.9997C100.629 48.5374 99.6003 47.8597 98.7337 47.0054C97.8671 46.1511 97.1795 45.1368 96.7103 44.0207C96.2415 42.9045 96 41.7082 96 40.5V29H68L33 63.5ZM72.6667 98H56.3333V72.7L77.3333 52H93.6667V77.3L72.6667 98Z" fill="black"/>
</g>
<defs>
<clipPath id="clip0_72_1889">
<rect width="84" height="92" fill="white" transform="translate(33 29)"/>
</clipPath>
</defs>
</svg>
