<svg width="150" height="150" viewBox="0 0 150 150" fill="none" xmlns="http://www.w3.org/2000/svg">
<path fill-rule="evenodd" clip-rule="evenodd" d="M48.3804 49.666V66.0989C49.6765 65.787 50.9492 65.3753 52.1869 64.8658C55.3202 63.5759 58.1674 61.6853 60.5654 59.3019C62.9635 56.9187 64.8659 54.0891 66.1639 50.9752C66.975 49.029 67.54 46.9955 67.8498 44.9212C61.2206 45.559 54.6616 47.1406 48.3804 49.666ZM36.2271 41.7247V66.8195V78.8979V79.2754C36.2271 100.33 53.401 117.397 74.5861 117.397C95.7714 117.397 112.945 100.33 112.945 79.2754V78.8979V66.8195V41.7247L107.328 39.2947C86.4464 30.2611 62.7259 30.2611 41.8442 39.2947L36.2271 41.7247ZM48.3827 79.6189C48.5391 91.6368 56.8858 101.691 68.1297 104.523C68.1242 101.166 67.4563 97.8435 66.1639 94.7423C64.8659 91.6281 62.9635 88.7987 60.5654 86.4153C58.1674 84.0319 55.3202 82.1415 52.1869 80.8516C50.9499 80.3425 49.6779 79.9309 48.3827 79.6189ZM74.2063 84.0846C72.7531 81.8485 71.0623 79.766 69.1593 77.8747C67.256 75.9834 65.1608 74.303 62.9108 72.8586C65.1608 71.4144 67.256 69.734 69.1593 67.8427C71.0623 65.9512 72.7531 63.869 74.2063 61.6328C75.6597 63.869 77.3505 65.9512 79.2536 67.8427C81.1566 69.734 83.252 71.4144 85.502 72.8586C83.252 74.303 81.1566 75.9834 79.2536 77.8747C77.3505 79.766 75.6597 81.8485 74.2063 84.0846ZM80.2831 104.702C91.9625 102.129 100.711 91.8108 100.791 79.4479C99.2329 79.7738 97.7043 80.243 96.226 80.8516C93.0924 82.1415 90.2454 84.0319 87.8473 86.4153C85.4491 88.7987 83.5469 91.6281 82.2489 94.7423C80.951 97.8562 80.2831 101.194 80.2831 104.564V104.702ZM96.226 64.8658C97.7045 65.4744 99.2333 65.9438 100.792 66.2697V49.666C94.2678 47.0429 87.4437 45.438 80.5526 44.8514C80.86 46.9499 81.4286 49.0072 82.2489 50.9752C83.5469 54.0891 85.4491 56.9187 87.8473 59.3019C90.2454 61.6853 93.0924 63.5759 96.226 64.8658Z" fill="black"/>
</svg>
