<svg width="150" height="150" viewBox="0 0 150 150" fill="none" xmlns="http://www.w3.org/2000/svg">
<g clip-path="url(#clip0_72_1998)">
<path d="M75.0001 34C97.6444 34 116 52.3557 116 75V103.7C116 106.962 114.704 110.091 112.398 112.397C110.091 114.704 106.962 116 103.7 116H77.0501V98.0133C77.0501 93.9092 77.3002 89.6575 79.4527 86.1643C80.9938 83.6609 83.0552 81.5182 85.4972 79.8816C87.9392 78.245 90.7047 77.1528 93.6059 76.679L94.3911 76.5518C94.7148 76.4412 94.9957 76.2321 95.1947 75.9539C95.3937 75.6756 95.5006 75.3421 95.5006 75C95.5006 74.6579 95.3937 74.3244 95.1947 74.0461C94.9957 73.7679 94.7148 73.5588 94.3911 73.4482L93.6059 73.321C89.3669 72.6286 85.4524 70.6221 82.4152 67.5849C79.378 64.5477 77.3715 60.6332 76.6791 56.3942L76.552 55.6091C76.4413 55.2854 76.2322 55.0044 75.954 54.8054C75.6757 54.6065 75.3422 54.4995 75.0001 54.4995C74.658 54.4995 74.3245 54.6065 74.0463 54.8054C73.768 55.0044 73.5589 55.2854 73.4483 55.6091L73.3212 56.3942C72.8475 59.2955 71.7553 62.061 70.1186 64.503C68.482 66.945 66.3393 69.0064 63.8358 70.5474C60.3426 72.6999 56.0909 72.95 51.9868 72.95H34.0493C35.1215 51.2589 53.0446 34 75.0001 34Z" fill="black"/>
<path d="M34 77.05H51.9867C56.0908 77.05 60.3425 77.3001 63.8357 79.4526C66.5662 81.1352 68.8648 83.4338 70.5474 86.1643C72.6999 89.6575 72.95 93.9092 72.95 98.0133V116H46.3C43.0378 116 39.9093 114.704 37.6026 112.397C35.2959 110.091 34 106.962 34 103.7V77.05ZM116 38.1C116 39.1874 115.568 40.2302 114.799 40.9991C114.03 41.768 112.987 42.2 111.9 42.2C110.813 42.2 109.77 41.768 109.001 40.9991C108.232 40.2302 107.8 39.1874 107.8 38.1C107.8 37.0126 108.232 35.9698 109.001 35.2009C109.77 34.432 110.813 34 111.9 34C112.987 34 114.03 34.432 114.799 35.2009C115.568 35.9698 116 37.0126 116 38.1Z" fill="black"/>
</g>
<defs>
<clipPath id="clip0_72_1998">
<rect width="82" height="82" fill="white" transform="translate(34 34)"/>
</clipPath>
</defs>
</svg>
