<svg width="150" height="150" viewBox="0 0 150 150" fill="none" xmlns="http://www.w3.org/2000/svg">
<path d="M38.8387 38.2861C50.0715 38.2861 59.1777 47.1226 59.1777 58.0229V92.5624C59.1777 93.4709 59.9366 94.2073 60.8726 94.2073C61.8086 94.2073 62.5674 93.4709 62.5674 92.5624V58.0229C62.5674 47.1226 71.6736 38.2861 82.9064 38.2861H110.025C123.13 38.2861 133.754 48.5954 133.754 61.3125V69.5619C133.754 75.1018 131.696 80.4574 127.957 84.644L104.725 110.655H77.8119L112.587 71.7173L112.776 71.486C113.191 70.928 113.415 70.2546 113.415 69.5619V61.3125C113.415 59.4957 111.897 58.0229 110.025 58.0229H86.2963V56.3782C86.2963 55.4699 85.5374 54.7335 84.6014 54.7335C83.6652 54.7335 82.9064 55.4699 82.9064 56.3782V90.9177C82.9064 101.818 73.8004 110.655 62.5674 110.655H59.1777C47.9447 110.655 38.8387 101.818 38.8387 90.9177V56.3782C38.8387 55.4699 38.0799 54.7335 37.1437 54.7335C36.2077 54.7335 35.4488 55.4699 35.4488 56.3782V110.655H15.1099V58.0229C15.1099 47.1226 24.2159 38.2861 35.4488 38.2861H38.8387Z" fill="black"/>
</svg>
